<?xml version="1.0" standalone="no"?>
<!DOCTYPE svg PUBLIC "-//W3C//DTD SVG 20010904//EN"
 "http://www.w3.org/TR/2001/REC-SVG-20010904/DTD/svg10.dtd">
<svg version="1.0" xmlns="http://www.w3.org/2000/svg"
 width="1186.000000pt" height="1186.000000pt" viewBox="0 0 1186.000000 1186.000000"
 preserveAspectRatio="xMidYMid meet">
<metadata>
Created by potrace 1.14, written by Peter Selinger 2001-2017
</metadata>
<g transform="translate(0.000000,1186.000000) scale(0.100000,-0.100000)"
fill="#000000" stroke="none">
<path d="M5767 11843 c-1 0 -67 -4 -147 -7 -80 -4 -158 -8 -175 -11 -16 -2
-59 -6 -95 -9 -77 -7 -131 -13 -185 -20 -22 -3 -62 -8 -90 -11 -27 -3 -57 -8
-65 -10 -8 -2 -28 -6 -45 -9 -16 -3 -46 -8 -65 -11 -19 -3 -48 -8 -65 -11 -16
-3 -37 -7 -46 -10 -10 -2 -30 -7 -45 -9 -16 -2 -39 -7 -51 -10 -39 -9 -67 -15
-94 -20 -14 -3 -77 -18 -140 -35 -63 -17 -123 -33 -134 -36 -11 -3 -24 -6 -30
-8 -14 -4 -99 -29 -105 -31 -3 -1 -20 -6 -37 -10 -18 -4 -33 -12 -33 -17 0 -5
-4 -7 -9 -4 -8 5 -100 -23 -111 -34 -3 -3 -12 -6 -20 -7 -15 -1 -98 -30 -155
-54 -35 -14 -32 -13 -67 -23 -16 -5 -28 -11 -28 -15 0 -4 -6 -8 -12 -8 -7 0
-31 -8 -53 -18 -22 -10 -42 -19 -45 -19 -15 -3 -77 -31 -89 -40 -7 -5 -20 -11
-29 -12 -22 -4 -386 -186 -390 -196 -2 -4 -8 -8 -13 -8 -5 0 -50 -24 -99 -52
-50 -29 -102 -59 -115 -66 -14 -7 -25 -17 -25 -21 0 -4 -6 -8 -13 -8 -12 0
-335 -211 -387 -253 -14 -11 -69 -54 -123 -94 -85 -65 -177 -139 -213 -171 -6
-5 -40 -35 -75 -65 -35 -30 -87 -78 -116 -106 -29 -28 -53 -49 -53 -47 0 2 -9
-6 -20 -17 -11 -11 -20 -25 -20 -31 0 -5 -4 -8 -8 -5 -11 6 -42 -30 -34 -39 4
-4 0 -5 -8 -3 -8 2 -14 -3 -13 -9 2 -7 -1 -12 -5 -10 -5 1 -31 -21 -58 -49
-101 -105 -174 -184 -174 -189 0 -4 -14 -18 -30 -32 -17 -13 -28 -29 -24 -34
3 -5 -1 -9 -8 -10 -7 0 -39 -32 -70 -72 -32 -40 -68 -84 -80 -99 -13 -14 -32
-39 -43 -54 -11 -15 -26 -33 -33 -41 -7 -7 -11 -13 -8 -13 3 0 -5 -11 -18 -25
-13 -14 -36 -44 -52 -67 -16 -24 -34 -49 -41 -55 -6 -7 -21 -29 -34 -50 -13
-21 -26 -40 -29 -43 -14 -12 -120 -179 -120 -189 0 -6 -4 -11 -8 -11 -5 0 -15
-12 -23 -27 -7 -16 -21 -39 -31 -52 -10 -13 -15 -28 -11 -35 3 -6 2 -8 -2 -3
-9 8 -76 -103 -69 -115 3 -5 1 -8 -3 -8 -5 0 -17 -13 -26 -30 -10 -16 -15 -30
-11 -30 4 0 -2 -10 -13 -22 -20 -23 -170 -321 -175 -348 -2 -8 -6 -17 -9 -20
-10 -8 -89 -191 -89 -206 0 -8 -5 -14 -11 -14 -6 0 -9 -6 -6 -14 3 -7 2 -17
-3 -22 -14 -14 -148 -385 -166 -459 -7 -28 -10 -38 -17 -55 -8 -19 -29 -100
-32 -120 -1 -8 -5 -22 -8 -30 -8 -18 -37 -136 -43 -170 -3 -14 -9 -42 -15 -63
-6 -21 -12 -50 -15 -65 -2 -15 -15 -85 -29 -157 -14 -71 -28 -148 -30 -170 -3
-22 -7 -51 -10 -65 -3 -14 -7 -47 -10 -75 -2 -27 -6 -59 -9 -70 -2 -11 -7 -60
-11 -109 -4 -49 -8 -101 -10 -115 -20 -161 -21 -659 -1 -901 2 -25 7 -81 10
-125 4 -44 9 -93 11 -110 6 -40 13 -90 20 -145 3 -25 10 -72 15 -105 6 -33 13
-80 17 -105 3 -25 9 -52 13 -60 4 -8 6 -23 5 -33 -2 -9 0 -17 3 -17 4 0 7 -10
8 -22 1 -30 15 -101 21 -110 4 -8 8 -25 18 -79 3 -14 19 -77 35 -140 17 -63
32 -120 32 -126 1 -7 5 -13 10 -13 5 0 6 -5 2 -11 -3 -6 -2 -21 4 -32 5 -12
34 -96 63 -187 29 -91 56 -169 61 -174 4 -6 8 -16 8 -22 0 -16 115 -293 166
-399 21 -44 38 -82 39 -85 1 -12 166 -322 211 -398 27 -46 53 -92 59 -103 5
-10 13 -19 17 -19 5 0 8 -5 8 -12 0 -13 101 -171 113 -176 4 -2 7 -10 7 -18 0
-8 4 -14 8 -14 5 0 14 -12 21 -26 12 -28 71 -107 84 -112 4 -2 7 -9 7 -16 0
-7 8 -21 18 -32 10 -10 21 -27 25 -37 4 -10 12 -15 17 -12 6 4 9 2 8 -4 -2 -5
7 -22 19 -38 13 -15 48 -61 79 -100 30 -40 60 -73 65 -73 5 0 9 -6 9 -12 0 -7
27 -41 60 -76 32 -35 58 -64 57 -66 -7 -8 502 -520 510 -513 2 3 24 -16 48
-41 25 -25 45 -43 45 -40 0 3 15 -8 33 -26 39 -37 116 -99 130 -105 5 -2 26
-19 45 -37 19 -18 39 -31 44 -28 4 3 8 1 8 -5 0 -5 21 -25 48 -42 26 -18 49
-36 52 -39 9 -12 160 -110 165 -108 2 2 12 -7 20 -19 9 -13 20 -23 25 -23 5 0
46 -25 91 -55 45 -30 86 -52 91 -49 4 3 8 1 8 -5 0 -10 190 -122 201 -118 3 1
13 -6 23 -16 10 -9 23 -17 31 -17 7 0 15 -4 17 -8 4 -10 289 -152 306 -152 6
0 12 -5 12 -11 0 -6 6 -9 14 -6 8 3 16 2 18 -2 5 -13 289 -131 299 -125 5 3 9
1 9 -4 0 -6 12 -13 28 -18 35 -10 32 -9 67 -23 17 -7 35 -14 40 -15 6 -2 18
-6 27 -10 9 -4 22 -9 30 -10 7 -2 24 -8 38 -13 14 -6 59 -21 100 -34 96 -29
102 -30 123 -32 9 -1 17 -4 17 -8 0 -7 78 -25 93 -21 4 1 7 -2 7 -6 0 -5 6 -9
13 -9 6 -1 88 -20 181 -43 92 -23 170 -39 173 -36 3 3 13 1 22 -4 10 -5 36
-11 59 -13 22 -3 45 -8 50 -10 4 -3 28 -8 53 -11 24 -3 71 -10 103 -16 32 -5
62 -7 67 -5 4 3 10 1 13 -3 3 -5 20 -10 38 -10 18 -1 51 -4 73 -7 84 -10 132
-15 180 -20 252 -26 813 -25 1052 0 24 3 64 7 90 10 47 4 80 8 173 21 98 12
117 15 165 24 28 5 66 12 85 14 48 8 92 16 110 21 8 2 29 7 45 10 54 9 118 24
305 70 8 2 56 16 105 30 50 14 95 27 100 29 6 1 35 10 65 19 30 9 57 16 60 15
3 -1 16 5 30 12 14 8 30 15 35 16 6 1 44 14 85 29 41 15 95 34 120 42 25 9 50
20 57 25 6 5 24 11 40 14 15 3 30 9 31 15 2 5 10 9 18 9 14 0 35 9 169 70 33
15 63 28 68 29 15 2 112 55 119 65 4 6 8 8 8 3 0 -11 160 74 160 85 0 5 5 6
11 2 6 -3 14 -3 18 2 3 5 26 19 51 32 71 37 139 77 160 95 11 9 20 15 20 12 0
-7 114 67 122 79 4 6 8 7 8 3 0 -5 23 7 50 27 28 20 54 36 59 36 5 0 11 3 13
8 2 4 36 29 76 56 39 27 72 54 72 58 0 5 5 6 10 3 6 -3 13 1 16 9 3 9 10 16
15 16 8 0 111 75 145 105 6 6 29 24 50 40 21 17 46 38 56 48 10 9 22 17 27 17
5 0 11 3 13 8 2 4 28 28 58 54 30 25 75 65 100 87 25 22 49 41 53 41 5 0 5 4
2 10 -3 5 -1 10 6 10 6 0 93 82 193 183 174 176 250 257 241 257 -2 0 12 16
32 35 20 19 33 35 28 35 -4 0 4 9 19 21 14 11 24 25 21 30 -4 5 -1 9 5 9 12 0
59 50 60 63 0 4 10 18 23 31 31 33 58 66 52 66 -2 0 6 11 18 24 34 38 68 85
67 92 -1 4 3 10 8 13 16 10 145 195 145 208 0 7 3 10 7 8 3 -2 19 17 35 43 15
26 42 69 59 96 17 27 30 53 28 58 -1 4 2 8 7 8 5 0 16 15 25 33 9 17 26 46 36
62 11 17 36 62 56 100 20 39 39 72 43 75 10 8 144 284 144 298 0 6 4 12 9 12
4 0 8 4 8 9 0 5 16 45 36 88 20 43 37 83 38 88 1 6 5 15 9 21 4 7 23 54 42
105 19 52 40 103 45 114 25 53 151 456 175 564 2 9 14 54 25 101 12 47 24 99
26 115 3 17 9 44 14 60 5 17 11 46 14 65 2 19 7 46 10 60 3 14 8 39 10 55 3
17 10 57 15 90 6 33 13 80 16 105 3 25 8 61 11 80 3 19 7 60 10 90 2 30 6 71
9 90 15 111 26 344 27 535 0 140 -9 423 -16 480 -3 17 -7 71 -11 120 -4 50 -9
99 -11 110 -5 23 -10 65 -19 144 -3 30 -8 57 -10 60 -1 3 -6 30 -9 59 -3 30
-8 57 -10 60 -2 4 -6 30 -10 59 -3 28 -8 57 -11 65 -2 7 -7 24 -9 38 -3 14 -7
34 -9 45 -3 11 -8 39 -12 62 -4 24 -11 45 -16 49 -5 3 -7 9 -4 14 4 7 -65 288
-82 330 -3 8 -7 22 -9 30 -2 8 -13 42 -24 75 -11 33 -23 69 -25 80 -8 37 -96
269 -107 282 -6 7 -8 13 -5 13 7 0 -80 210 -95 227 -6 7 -8 13 -5 13 9 0 -55
134 -67 142 -6 4 -8 8 -3 8 8 0 -42 102 -56 111 -5 3 -8 10 -8 15 1 18 -11 44
-20 44 -6 0 -8 4 -4 9 3 5 -2 16 -10 24 -8 9 -15 20 -15 26 0 14 -60 114 -74
123 -6 4 -8 8 -3 8 8 0 -20 61 -32 70 -4 3 -26 39 -50 80 -68 116 -254 392
-268 397 -7 3 -13 9 -13 14 0 18 -65 108 -78 108 -7 1 -11 5 -8 9 2 4 -8 22
-22 39 -15 17 -40 48 -57 69 -60 76 -139 170 -163 194 -14 14 -31 35 -39 47
-9 13 -19 20 -24 17 -5 -3 -8 -2 -7 3 7 20 -247 274 -486 488 -112 100 -308
255 -323 255 -7 0 -13 7 -13 15 0 8 -11 17 -25 21 -14 3 -25 10 -25 14 0 9
-187 140 -200 140 -4 0 -10 4 -12 8 -3 8 -95 72 -104 72 -2 0 -23 13 -45 30
-23 16 -45 27 -50 24 -5 -3 -9 -1 -9 5 0 9 -291 180 -314 184 -6 1 -13 5 -16
8 -11 12 -170 89 -170 82 0 -5 -4 -3 -8 4 -7 12 -98 56 -117 57 -5 1 -12 3
-15 7 -3 3 -21 12 -40 21 -58 27 -115 51 -120 52 -3 1 -24 9 -45 18 -22 9 -78
31 -125 48 -47 18 -93 36 -103 41 -10 5 -22 7 -27 4 -6 -4 -10 -2 -10 2 0 6
-128 53 -160 58 -7 1 -152 46 -170 53 -8 3 -24 7 -35 9 -26 6 -37 9 -55 16
-16 5 -96 26 -120 31 -8 2 -26 6 -40 9 -48 12 -255 56 -290 62 -19 3 -59 10
-88 16 -29 6 -73 12 -99 14 -25 3 -53 7 -62 9 -9 3 -38 8 -66 11 -27 3 -59 7
-71 9 -11 2 -58 7 -105 11 -46 4 -97 9 -114 11 -78 9 -620 25 -628 17z"/>
</g>
</svg>
